<svg width="250" height="250" viewBox="0 0 250 250" fill="none" xmlns="http://www.w3.org/2000/svg">
  <g clip-path="url(#clip0_69_2)">
    <rect width="250" height="250" fill="none" />
    <path
      d="M132.952 128.506C132.952 128.506 161.677 138.248 158.621 115.325C158.621 115.325 176.007 120.483 182.457 112.459C188.908 104.436 182.457 93.5476 182.457 93.5476C182.457 93.5476 196.35 96.9063 199.57 81.5127C202.927 65.4671 185.513 58.0163 185.513 58.0163C205.071 33.9466 188.569 16.7541 162.288 28.7888C162.288 28.7888 158.621 2.99986 137.23 3C115.839 3.00014 114.005 19.0464 114.005 19.0464C114.005 19.0464 103.004 -1.0116 85.8912 6.4385C70.3028 13.2249 74.2788 28.7888 74.2788 28.7888C74.2788 28.7888 47.9981 19.0464 42.4976 40.2506C38.7112 54.8465 57.7771 65.4664 57.7771 65.4664C26.4531 89.8649 63.2777 100.425 63.2777 100.425C63.2777 100.425 52.5452 125.555 81.613 119.336C82.944 131.55 89.882 138.158 107.282 132.517C107.282 132.517 99.2107 185.859 77.3347 247.708C109.677 217.523 106.767 227.655 142.12 250C121.236 201.025 130.746 191.603 132.952 128.506Z"
      fill="black" />
  </g>
  <defs>
    <clipPath id="clip0_69_2">
      <rect width="250" height="250" fill="none" />
    </clipPath>
  </defs>
</svg>